<!DOCTYPE svg PUBLIC "-//W3C//DTD SVG 1.1//EN" "http://www.w3.org/Graphics/SVG/1.1/DTD/svg11.dtd">
<!-- Uploaded to: SVG Repo, www.svgrepo.com, Transformed by: SVG Repo Mixer Tools -->
<svg fill="#47d62f" width="81px" height="81px" viewBox="-10 -10 120.00 120.00" version="1.1" xml:space="preserve" xmlns="http://www.w3.org/2000/svg" xmlns:xlink="http://www.w3.org/1999/xlink" stroke="#47d62f">
<g id="SVGRepo_bgCarrier" stroke-width="0">
<rect x="-10" y="-10" width="120.00" height="120.00" rx="60" fill="#BDFFB2" strokewidth="0"/>
</g>
<g id="SVGRepo_tracerCarrier" stroke-linecap="round" stroke-linejoin="round"/>
<g id="SVGRepo_iconCarrier"> <g id="_x31_"/> <g id="_x32_"/> <g id="_x33_"/> <g id="_x34_"/> <g id="_x35_"/> <g id="_x36_"/> <g id="_x37_"/> <g id="_x38_"> <path d="M74.8,89.6H25.2c-1.1,0-2-0.9-2-2V20.4c0-1.1,0.9-2,2-2h14.3c1.1,0,2,0.9,2,2v2.4h16.9v-2.4c0-1.1,0.9-2,2-2h14.3 c1.1,0,2,0.9,2,2v67.2C76.8,88.7,75.9,89.6,74.8,89.6z M27.2,85.6h45.6V22.4H62.5v2.4c0,1.1-0.9,2-2,2H39.5c-1.1,0-2-0.9-2-2v-2.4 H27.2V85.6z M68.3,82.4H31.7c-1.1,0-2-0.9-2-2V30c0-1.1,0.9-2,2-2h36.6c1.1,0,2,0.9,2,2v50.4C70.3,81.5,69.4,82.4,68.3,82.4z M33.7,78.4h32.6V32H33.7V78.4z M60.5,26.8H39.5c-1.1,0-2-0.9-2-2v-7.7c0-1.1,0.9-2,2-2h4.3c0.7-2.7,3.2-4.7,6.1-4.7s5.4,2,6.1,4.7 h4.3c1.1,0,2,0.9,2,2v7.7C62.5,25.9,61.6,26.8,60.5,26.8z M41.5,22.8h16.9v-3.7h-4.1c-0.6,0-1.1-0.2-1.5-0.6 c-0.4-0.4-0.6-1-0.5-1.5l0-0.2c0-1.3-1.1-2.3-2.4-2.3c-1.3,0-2.3,1-2.4,2.3l0,0.2c0.1,0.6-0.1,1.1-0.5,1.5 c-0.4,0.4-0.9,0.7-1.5,0.7h-4.1V22.8z M54,62.4H46c-1.1,0-2-0.9-2-2v-4h-4c-1.1,0-2-0.9-2-2v-7.9c0-1.1,0.9-2,2-2h4v-4 c0-1.1,0.9-2,2-2H54c1.1,0,2,0.9,2,2v4h4c1.1,0,2,0.9,2,2v7.9c0,1.1-0.9,2-2,2h-4v4C56,61.5,55.1,62.4,54,62.4z M48,58.4H52v-4 c0-1.1,0.9-2,2-2h4v-3.9h-4c-1.1,0-2-0.9-2-2v-4H48v4c0,1.1-0.9,2-2,2h-4v3.9h4c1.1,0,2,0.9,2,2V58.4z M61.9,70.3c0-1.1-0.9-2-2-2 H40.1c-1.1,0-2,0.9-2,2s0.9,2,2,2h19.8C61,72.3,61.9,71.4,61.9,70.3z"/> </g> <g id="_x39_"/> <g id="_x31_0"/> <g id="_x31_1"/> <g id="_x31_2"/> <g id="_x31_3"/> <g id="_x31_4"/> <g id="_x31_5"/> <g id="_x31_6"/> <g id="_x31_7"/> <g id="_x31_8"/> <g id="_x31_9"/> <g id="_x32_0"/> <g id="_x32_1"/> <g id="_x32_2"/> <g id="_x32_3"/> <g id="_x32_4"/> <g id="_x32_5"/> </g>
</svg>