<!DOCTYPE svg PUBLIC "-//W3C//DTD SVG 1.1//EN" "http://www.w3.org/Graphics/SVG/1.1/DTD/svg11.dtd">
<!-- Uploaded to: SVG Repo, www.svgrepo.com, Transformed by: SVG Repo Mixer Tools -->
<svg height="80px" width="80px" version="1.1" id="Layer_1" xmlns="http://www.w3.org/2000/svg" xmlns:xlink="http://www.w3.org/1999/xlink" viewBox="-39.26 -39.26 471.13 471.13" xml:space="preserve" fill="#000000">
<g id="SVGRepo_bgCarrier" stroke-width="0">
<rect x="-39.26" y="-39.26" width="471.13" height="471.13" rx="235.565" fill="#CDD8FD" strokewidth="0"/>
</g>
<g id="SVGRepo_tracerCarrier" stroke-linecap="round" stroke-linejoin="round"/>
<g id="SVGRepo_iconCarrier"> <g> <polygon style="fill:#7ed0ec;" points="83.232,82.046 26.408,138.935 55.434,168.026 83.232,140.163 "/> <polygon style="fill:#7ed0ec;" points="309.366,140.163 337.164,168.026 366.19,138.935 309.366,82.046 "/> </g> <path style="fill:#FFFFFF;" d="M196.299,111.525c-27.022,0-49.584-19.329-54.691-44.8h-36.525v259.168H287.58V66.66h-36.655 C245.818,92.195,223.257,111.525,196.299,111.525z"/> <path style="fill:#99c1f1;" d="M196.299,133.311c-30.384,0-56.695-17.519-69.495-42.99v144.097h35.943 c6.012,0,10.925,4.848,10.925,10.925c0,6.012-4.848,10.925-10.925,10.925h-35.943v21.786h18.036c6.012,0,10.925,4.849,10.925,10.925 s-4.848,10.925-10.925,10.925h-18.036v4.202h138.861V90.191C252.994,115.727,226.683,133.311,196.299,133.311z"/> <g> <path style="fill:#3584e4;" d="M389.398,131.242l-83.2-83.2c-2.133-2.133-5.042-3.232-7.887-3.168h-57.212 c-6.012,0-10.925,4.848-10.925,10.925c0,18.683-15.192,33.939-33.939,33.939s-33.939-15.192-33.939-33.939 c0-6.012-4.848-10.925-10.925-10.925H94.158c-2.844,0-5.689,1.034-7.887,3.168L3.2,131.242c-4.267,4.267-4.267,11.119,0,15.451 l44.477,44.477c4.978,4.202,11.313,4.267,15.451,0l20.105-20.105v165.754c0,6.012,4.848,10.925,10.925,10.925H298.44 c6.012,0,10.925-4.848,10.925-10.925V170.999l20.17,20.17c4.202,4.267,10.408,4.396,15.451,0l44.541-44.541 C393.665,142.426,393.665,135.444,389.398,131.242z M26.408,138.935l56.889-56.889v58.117l-27.798,27.798L26.408,138.935z M287.58,325.892H105.018V66.66h36.525c5.107,25.471,27.669,44.8,54.691,44.8c26.958,0,49.519-19.329,54.626-44.8h36.655v259.232 H287.58z M337.164,168.026l-27.798-27.798V82.111l56.889,56.889L337.164,168.026z"/> <path style="fill:#3584e4;" d="M232.76,185.351h-25.6v-25.6c0-6.012-4.848-10.925-10.925-10.925 c-6.077,0-10.925,4.848-10.925,10.925v25.6h-25.6c-6.012,0-10.925,4.848-10.925,10.925c0,6.012,4.848,10.925,10.925,10.925h25.6 v25.6c0,6.012,4.848,10.925,10.925,10.925c6.012,0,10.925-4.848,10.925-10.925v-25.6h25.6c6.012,0,10.925-4.848,10.925-10.925 C243.685,190.264,238.772,185.351,232.76,185.351z"/> </g> </g>
</svg>